<svg viewBox="0 0 10 10" fill="none" xmlns="http://www.w3.org/2000/svg">
<path d="M9.79375 1.20219C10.0687 0.927175 10.0687 0.481281 9.79375 0.206266C9.51875 -0.0687554 9.07283 -0.0687554 8.79783 0.206266L5.00001 4.00409L1.20219 0.206266C0.927175 -0.0687554 0.481281 -0.0687554 0.206266 0.206266C-0.0687554 0.481281 -0.0687554 0.927175 0.206266 1.20219L4.00409 5.00001L0.206266 8.79783C-0.0687554 9.07283 -0.0687554 9.51875 0.206266 9.79375C0.481281 10.0687 0.927175 10.0687 1.20219 9.79375L5.00001 5.99593L8.79783 9.79375C9.07283 10.0687 9.51875 10.0687 9.79375 9.79375C10.0687 9.51875 10.0687 9.07283 9.79375 8.79783L5.99593 5.00001L9.79375 1.20219Z" fill="currentColor"/>
</svg>
