<svg width="20" height="20" viewBox="0 0 20 20" fill="none" xmlns="http://www.w3.org/2000/svg">
<g clip-path="url(#clip0_3391_28133)">
<path fill-rule="evenodd" clip-rule="evenodd" d="M3.82352 10.5039V4.70555C3.82352 4.38066 4.08687 4.1173 4.41176 4.1173H15.5882C15.9131 4.1173 16.1765 4.38066 16.1765 4.70555V10.6384L13.2858 13.5291H7L3.82352 10.5039ZM6.27453 3.23496L9.64707 0.705547C9.85621 0.548672 10.1438 0.548672 10.353 0.705547L13.7255 3.23496H6.27453ZM2.64707 5.95555V9.46187L0.643438 7.45824L2.64707 5.95555ZM17.3529 9.46187V5.95555L19.3566 7.45828L17.3529 9.46187ZM19.0711 19.4114H0.928945L6.68059 14.7055H13.3195L19.0711 19.4114ZM0 18.6514V8.47859L5.59504 14.0736L0 18.6514ZM20 8.47859V18.6514L14.405 14.0736L20 8.47859ZM7.85504 7.73285L7.4391 8.14879C7.32426 8.26363 7.32426 8.44988 7.4391 8.56473L9.28996 10.4156C9.51969 10.6453 9.89215 10.6453 10.1218 10.4156L13.1491 7.38824C13.264 7.2734 13.264 7.08715 13.1491 6.9723L12.7332 6.55637C12.6184 6.44152 12.4321 6.44152 12.3173 6.55637L9.7059 9.16773L8.27098 7.73285C8.15613 7.61801 7.96988 7.61801 7.85504 7.73285Z" fill="#8A8A8A"/>
</g>
<defs>
<clipPath id="clip0_3391_28133">
<rect width="20" height="20" fill="white"/>
</clipPath>
</defs>
</svg>
