<svg viewBox="0 0 121 121" fill="none" xmlns="http://www.w3.org/2000/svg">
<path fill-rule="evenodd" clip-rule="evenodd" d="M61.3323 46.229H41.6729C41.6748 46.124 41.6673 46.019 41.6504 45.9121C41.5679 45.3834 41.5267 44.8621 41.5285 44.3484C41.5342 43.3134 40.6979 42.4696 39.6629 42.4659C38.6279 42.4621 37.7842 43.2984 37.7785 44.3334C37.7767 44.9559 37.8179 45.5896 37.906 46.229H27.7979C26.3054 46.229 24.8748 46.8215 23.8192 47.8771C22.7654 48.9309 22.1729 50.3615 22.1729 51.854V54.419C20.8004 54.9758 19.5648 55.8571 18.5804 57.0083C16.7992 59.0896 16.0173 61.844 16.4392 64.5515C18.3479 76.7596 21.7829 98.7477 23.4704 109.551C24.1848 114.115 28.1148 117.479 32.7348 117.479H87.3948C92.0148 117.479 95.9448 114.115 96.6592 109.551C98.0092 100.908 100.477 85.1071 102.387 72.8821C102.547 71.8602 101.847 70.9002 100.825 70.7408C99.8017 70.5815 98.8417 71.2808 98.6823 72.3046C96.7717 84.5296 94.3042 100.328 92.9542 108.972C92.5248 111.71 90.1679 113.729 87.3948 113.729C74.5079 113.729 45.6217 113.729 32.7348 113.729C29.9617 113.729 27.6048 111.71 27.1754 108.972C25.4879 98.1684 22.0529 76.1802 20.1442 63.9721C19.891 62.3484 20.3598 60.6946 21.4285 59.4459C22.4973 58.1971 24.0592 57.479 25.7035 57.479H94.426C96.0704 57.479 97.6323 58.1971 98.701 59.4459C99.7698 60.6946 100.239 62.3484 99.9854 63.9721C99.8242 64.994 100.525 65.954 101.547 66.1133C102.569 66.2746 103.529 65.5733 103.69 64.5515C104.112 61.844 103.33 59.0896 101.549 57.0083C100.379 55.6415 98.8567 54.6552 97.1729 54.1396V44.5021C97.1729 43.0115 96.5804 41.5809 95.5248 40.5252C94.4692 39.4715 93.0385 38.8771 91.5479 38.8771C84.8335 38.8771 73.7729 38.8771 67.8517 38.8771C65.4385 38.8771 63.2954 40.4165 62.5229 42.7021L61.3323 46.229ZM55.7804 100.317C55.7804 98.2471 54.1023 96.5671 52.0304 96.5671C47.8698 96.5671 41.1929 96.5671 37.0304 96.5671C34.9604 96.5671 33.2804 98.2471 33.2804 100.317V104.067C33.2804 106.139 34.9604 107.817 37.0304 107.817H52.0304C54.1023 107.817 55.7804 106.139 55.7804 104.067C55.7804 102.861 55.7804 101.525 55.7804 100.317ZM43.6173 38.7252C43.9867 38.294 44.3992 37.8871 44.8567 37.5102C45.6535 36.8502 45.766 35.6671 45.106 34.8702C44.446 34.0733 43.2629 33.9608 42.466 34.6208C41.8379 35.1402 41.2698 35.699 40.7635 36.2934C40.0923 37.0809 40.1879 38.2659 40.9754 38.9371C41.7629 39.6084 42.9479 39.5127 43.6173 38.7252ZM50.6842 34.8046C51.4435 34.634 52.2423 34.5046 53.0785 34.4221C54.1079 34.319 54.8617 33.4002 54.7585 32.369C54.6554 31.3396 53.7367 30.5877 52.7054 30.6908C51.7117 30.7902 50.7648 30.9421 49.8629 31.1446C48.8542 31.3715 48.2185 32.3765 48.4454 33.3852C48.6704 34.3959 49.6754 35.0315 50.6842 34.8046ZM60.2842 34.4146C61.426 34.4427 62.5135 34.4352 63.5467 34.3902C64.5817 34.3471 65.386 33.4734 65.3429 32.4402C65.2998 31.4052 64.4242 30.6008 63.391 30.644C62.4367 30.6833 61.4335 30.6927 60.3779 30.6646C59.3448 30.6402 58.4823 31.4577 58.456 32.4927C58.4317 33.5277 59.2492 34.3884 60.2842 34.4146ZM71.2942 33.2165C72.5054 32.8659 73.5948 32.4477 74.5735 31.9771C75.5073 31.529 75.901 30.4077 75.4529 29.4758C75.0048 28.5421 73.8835 28.1483 72.9517 28.5965C72.1454 28.9846 71.2454 29.3258 70.2498 29.6146C69.256 29.9033 68.6823 30.9458 68.971 31.9396C69.2598 32.9333 70.3004 33.5052 71.2942 33.2165ZM80.2098 27.374C81.106 26.0952 81.691 24.7321 82.0135 23.3521C82.2479 22.3452 81.6217 21.3365 80.6148 21.1002C79.606 20.864 78.5973 21.4921 78.361 22.499C78.1435 23.4327 77.746 24.3552 77.1385 25.2215C76.5442 26.069 76.7504 27.239 77.5979 27.8333C78.4454 28.4258 79.6154 28.2215 80.2098 27.374ZM57.3535 9.89522C58.5217 4.42585 63.2729 1.86835 66.5635 1.95835C69.8467 2.04835 71.6748 4.78022 67.0248 9.89522H69.661C70.696 9.89522 71.536 10.7352 71.536 11.7702C71.536 12.8052 70.696 13.6452 69.661 13.6452H67.0585C71.6673 18.7358 69.8392 21.4527 66.5635 21.5427C63.2804 21.6327 58.5423 19.0865 57.3629 13.6452H57.1079C56.0729 13.6452 55.2329 12.8052 55.2329 11.7702C55.2329 10.7352 56.0729 9.89522 57.1079 9.89522H57.3535ZM81.3217 15.8315C80.4892 13.8946 79.1898 12.2633 77.6429 11.1965C76.7917 10.6096 75.6235 10.8233 75.0348 11.6765C74.4479 12.5277 74.6617 13.6958 75.5148 14.2846C76.5179 14.9765 77.3354 16.0546 77.8754 17.3108C78.2842 18.2615 79.3867 18.7021 80.3373 18.2952C81.2898 17.8865 81.7304 16.7821 81.3217 15.8315Z" fill="currentColor"/>
</svg>
