<svg width="21" height="21" viewBox="0 0 21 21" fill="none" xmlns="http://www.w3.org/2000/svg">
<path d="M10.5001 13.7348C12.2856 13.7348 13.7331 12.2873 13.7331 10.5018C13.7331 8.71626 12.2856 7.2688 10.5001 7.2688C8.71455 7.2688 7.26709 8.71626 7.26709 10.5018C7.26709 12.2873 8.71455 13.7348 10.5001 13.7348Z" fill="#84808F"/>
<path d="M20.6779 9.60614C18.1928 6.6031 14.431 3.7124 10.5 3.7124C6.56832 3.7124 2.80565 6.60512 0.322188 9.60614C-0.107396 10.125 -0.107396 10.8783 0.322188 11.3972C0.946558 12.1517 2.25551 13.6082 4.00375 14.8808C8.40664 18.0859 12.5837 18.093 16.9963 14.8808C18.7446 13.6082 20.0535 12.1517 20.6779 11.3972C21.1062 10.8793 21.1084 10.1267 20.6779 9.60614ZM10.5 5.97549C12.9959 5.97549 15.0262 8.00581 15.0262 10.5017C15.0262 12.9975 12.9959 15.0279 10.5 15.0279C8.00417 15.0279 5.97386 12.9975 5.97386 10.5017C5.97386 8.00581 8.00417 5.97549 10.5 5.97549Z" fill="#84808F"/>
</svg>
