<svg width="25" height="25" viewBox="0 0 25 25" fill="none" xmlns="http://www.w3.org/2000/svg">
<circle cx="12.5" cy="12.8516" r="12" fill="#1D8E33"/>
<path d="M15.6166 15.968C15.3367 15.8229 15.036 15.6777 14.5902 15.6777C14.1962 15.6777 13.8748 15.8229 13.5741 15.968C13.2527 16.1132 12.9209 16.2687 12.4751 16.2687C12.0811 16.2687 11.7908 16.1339 11.4798 15.9888C11.1583 15.8436 10.8266 15.6881 10.3704 15.6881C9.9764 15.6881 9.65499 15.8333 9.34395 15.968C9.02254 16.1132 8.6804 16.2687 8.24494 16.2687C8.2242 16.2687 8.1931 16.2687 8.17236 16.2687C8.21384 16.3206 8.26568 16.3828 8.30715 16.4346C8.75297 16.4242 9.08475 16.2687 9.40616 16.1236C9.7172 15.9888 9.99713 15.854 10.36 15.854C10.7747 15.854 11.0754 15.9991 11.3968 16.1443C11.7079 16.2894 12.0396 16.445 12.4647 16.445C12.9416 16.445 13.2942 16.2791 13.6363 16.1236C13.937 15.9888 14.2273 15.854 14.5902 15.854C14.9945 15.854 15.2641 15.9888 15.544 16.1339C15.8447 16.2894 16.1661 16.445 16.6845 16.445C16.7363 16.3931 16.7778 16.3309 16.8296 16.2687C16.7882 16.2687 16.7363 16.2791 16.6949 16.2791C16.2076 16.2583 15.9069 16.1132 15.6166 15.968Z" fill="white"/>
<path d="M14.5906 15.9883C14.1966 15.9883 13.8752 16.1334 13.5745 16.2786C13.2531 16.4237 12.9214 16.5793 12.4755 16.5793C12.0816 16.5793 11.7912 16.4445 11.4802 16.2993C11.1588 16.1542 10.827 15.9986 10.3708 15.9986C9.97685 15.9986 9.65544 16.1438 9.3444 16.2786C9.07483 16.403 8.78453 16.5274 8.44238 16.5689C8.49422 16.6207 8.53569 16.6726 8.58753 16.714C8.90894 16.6622 9.16814 16.5482 9.41697 16.4341C9.72801 16.2993 10.008 16.1645 10.3708 16.1645C10.7856 16.1645 11.0862 16.3097 11.4076 16.4548C11.7187 16.6 12.0504 16.7555 12.4755 16.7555C12.9525 16.7555 13.305 16.5896 13.6471 16.4341C13.9478 16.289 14.2381 16.1645 14.601 16.1645C15.0053 16.1645 15.2749 16.2993 15.5548 16.4445C15.8037 16.5689 16.0525 16.6933 16.4154 16.7451C16.4672 16.6933 16.5191 16.6415 16.5605 16.5896C16.1562 16.5689 15.8866 16.4237 15.6274 16.2993C15.3267 16.1334 15.0364 15.9883 14.5906 15.9883Z" fill="white"/>
<path d="M14.5902 16.3008C14.1962 16.3008 13.8748 16.4459 13.5741 16.5911C13.2527 16.7362 12.9209 16.8918 12.4751 16.8918C12.0811 16.8918 11.7908 16.757 11.4798 16.6118C11.1584 16.4667 10.8266 16.3111 10.3704 16.3111C9.97644 16.3111 9.65503 16.4563 9.34399 16.5911C9.147 16.6844 8.93964 16.7777 8.70117 16.8295C8.75301 16.871 8.79448 16.9229 8.84632 16.9643C9.04332 16.9021 9.22994 16.8192 9.4062 16.7466C9.71724 16.6118 9.99717 16.477 10.3601 16.477C10.7748 16.477 11.0754 16.6222 11.3969 16.7673C11.7079 16.9125 12.0397 17.068 12.4648 17.068C12.9417 17.068 13.2942 16.9021 13.6363 16.7466C13.937 16.6118 14.2273 16.477 14.5902 16.477C14.9945 16.477 15.2641 16.6118 15.5441 16.7466C15.7203 16.8399 15.8966 16.9229 16.1247 16.9851C16.1765 16.9436 16.2283 16.8918 16.2802 16.8503C16.021 16.7984 15.824 16.6948 15.627 16.5911C15.3263 16.4563 15.036 16.3008 14.5902 16.3008Z" fill="white"/>
<path d="M14.5906 16.6211C14.1967 16.6211 13.8753 16.7662 13.5746 16.9114C13.2532 17.0565 12.9214 17.2121 12.4756 17.2121C12.0816 17.2121 11.7913 17.0773 11.4802 16.9321C11.1588 16.787 10.8271 16.6315 10.3709 16.6315C9.97689 16.6315 9.65548 16.7766 9.34444 16.9114C9.22002 16.9632 9.10598 17.0254 8.97119 17.0669C9.02303 17.1084 9.07487 17.1499 9.12671 17.1913C9.23039 17.1499 9.3237 17.1084 9.41702 17.0669C9.72806 16.9321 10.008 16.7973 10.3709 16.7973C10.7856 16.7973 11.0863 16.9425 11.4077 17.0877C11.7187 17.2328 12.0505 17.3883 12.4756 17.3883C12.9525 17.3883 13.305 17.2224 13.6472 17.0669C13.9478 16.9218 14.2381 16.7973 14.601 16.7973C15.0054 16.7973 15.2749 16.9321 15.5549 17.0773C15.6482 17.1291 15.7519 17.181 15.8555 17.2224C15.9074 17.181 15.9592 17.1395 16.0111 17.098C15.8763 17.0462 15.7519 16.984 15.6274 16.9218C15.3268 16.7662 15.0365 16.6211 14.5906 16.6211Z" fill="white"/>
<path d="M14.5901 16.9316C14.1961 16.9316 13.8747 17.0768 13.5741 17.2219C13.2526 17.3671 12.9209 17.5226 12.4751 17.5226C12.0811 17.5226 11.7908 17.3878 11.4797 17.2427C11.1583 17.0872 10.8265 16.942 10.3703 16.942C9.97636 16.942 9.65495 17.0872 9.34391 17.2219C9.31281 17.2427 9.27134 17.253 9.24023 17.2738C9.29207 17.3153 9.34391 17.3464 9.39575 17.3878C9.40612 17.3878 9.40612 17.3878 9.41649 17.3775C9.72753 17.2427 10.0075 17.1079 10.3703 17.1079C10.7851 17.1079 11.0857 17.253 11.4071 17.3982C11.7182 17.5434 12.05 17.6989 12.4751 17.6989C12.952 17.6989 13.3045 17.533 13.6466 17.3775C13.9473 17.2323 14.2376 17.1079 14.6005 17.1079C15.0048 17.1079 15.2744 17.2427 15.5543 17.3878C15.5647 17.3982 15.5751 17.3982 15.5958 17.4086C15.6477 17.3775 15.6995 17.336 15.7513 17.3049C15.7099 17.2842 15.6684 17.2634 15.6373 17.2427C15.3263 17.0872 15.0359 16.9316 14.5901 16.9316Z" fill="white"/>
<path d="M13.5529 17.5338C13.2315 17.679 12.8997 17.8345 12.4539 17.8345C12.0599 17.8345 11.7696 17.6997 11.4586 17.5546C11.1372 17.4094 10.8054 17.2539 10.3492 17.2539C10.0278 17.2539 9.75822 17.3472 9.49902 17.4613C9.56123 17.5027 9.61307 17.5338 9.67528 17.5649C9.88264 17.482 10.1004 17.4198 10.3492 17.4198C10.7639 17.4198 11.0646 17.5649 11.386 17.7101C11.697 17.8553 12.0288 18.0108 12.4539 18.0108C12.9308 18.0108 13.2833 17.8449 13.6255 17.6894C13.9262 17.5546 14.2165 17.4198 14.5793 17.4198C14.8696 17.4198 15.0874 17.482 15.2844 17.5753C15.3466 17.5442 15.3984 17.5027 15.4503 17.4716C15.2118 17.3576 14.9422 17.2539 14.5793 17.2539C14.1957 17.2539 13.864 17.3991 13.5529 17.5338Z" fill="white"/>
<path d="M12.501 6.37109C8.92687 6.37109 6.021 9.27697 6.021 12.8511C6.021 16.4252 8.92687 19.3311 12.501 19.3311C16.0751 19.3311 18.981 16.4252 18.981 12.8511C18.981 9.27697 16.0751 6.37109 12.501 6.37109ZM12.501 18.2983C9.49387 18.2983 7.05375 15.8582 7.05375 12.8511C7.05375 9.84397 9.49387 7.40384 12.501 7.40384C15.5081 7.40384 17.9482 9.84397 17.9482 12.8511C17.9482 15.8582 15.5081 18.2983 12.501 18.2983Z" fill="white"/>
<path d="M15.1337 11.3677C15.099 11.5414 14.9252 11.7238 14.8297 11.802C14.6125 11.9757 13.1706 12.853 13.0056 13.0528C12.8405 13.2526 12.8145 13.5566 12.8145 13.7824V15.4763H13.0403C13.0403 15.3286 13.0403 15.0767 13.0403 15.042C13.0403 14.8943 13.1272 14.6598 13.3009 14.4774C13.5962 14.1646 14.2824 13.7824 14.7428 13.4524C15.1163 13.1744 15.1424 12.8009 15.1424 12.4795C15.1424 12.2102 15.1424 11.4632 15.1424 11.3242L15.1337 11.3677Z" fill="white"/>
<path d="M12.822 12.9495C12.9784 12.7497 14.4724 11.8463 14.6809 11.6726C14.8894 11.4988 15.1413 11.2382 15.1413 10.8995C15.1413 10.6128 15.1413 9.20564 15.1413 9.00586C15.1413 9.27514 14.9936 9.47492 14.8025 9.72682C14.5854 10.0135 13.5864 10.552 13.0913 10.8995C12.5962 11.2469 12.4312 11.5857 12.4312 12.0113C12.4312 12.3675 12.4312 14.7128 12.4312 15.4685H12.6483C12.6483 14.9734 12.6483 13.8355 12.6483 13.6617C12.6396 13.4359 12.657 13.1492 12.822 12.9495Z" fill="white"/>
<path d="M11.6932 10.9865C11.2415 10.6391 10.3207 9.90076 10.2078 9.75309C10.0949 9.60542 9.86035 9.34483 9.86035 9.02344C9.86035 9.25797 9.86035 10.5696 9.86035 10.7868C9.86035 11.0387 9.98196 11.4904 10.4163 11.8117C10.8506 12.1331 11.4673 12.5935 11.6584 12.7846C11.8408 12.967 12.0146 13.3058 12.0146 13.7835C12.0146 14.131 12.0146 15.0604 12.0146 15.4861H12.2317C12.2317 14.7564 12.2317 12.5501 12.2317 12.1071C12.2491 11.5512 12.1449 11.334 11.6932 10.9865Z" fill="white"/>
</svg>
