<svg width="38" height="48" viewBox="0 0 38 48" fill="none" xmlns="http://www.w3.org/2000/svg">
<g opacity="0.6" clip-path="url(#clip0_9648_356570)">
<path d="M14.3815 0.667969C11.5863 0.667969 9.32043 2.93391 9.32043 5.72907V9.10314H12.6945V5.72907C12.6945 4.79736 13.4498 4.04204 14.3815 4.04204H16.713L17.9338 6.48353C18.2195 7.05508 18.8036 7.4161 19.4426 7.4161H27.8778C28.5169 7.4161 29.1009 7.05508 29.3867 6.48353L30.6074 4.04204H32.9389C33.8707 4.04204 34.6259 4.79736 34.6259 5.72907V37.7827H12.6945V36.0957H9.32043V42.8438C9.32043 45.6391 11.5863 47.9049 14.3815 47.9049H32.9389C35.7342 47.9049 38 45.6391 38 42.8438V5.72907C38 2.93391 35.7342 0.667969 32.9389 0.667969H14.3815Z" fill="#84808F"/>
<path fill-rule="evenodd" clip-rule="evenodd" d="M11.0075 12.4766C5.41712 12.4766 0.885254 17.0084 0.885254 22.5988C0.885254 28.1891 5.41712 32.721 11.0075 32.721C16.5978 32.721 21.1297 28.1891 21.1297 22.5988C21.1297 17.0084 16.5978 12.4766 11.0075 12.4766ZM15.5744 18.8753C16.2332 19.5341 16.2332 20.6023 15.5744 21.2611L10.5133 26.3222C10.156 26.6797 9.65716 26.858 9.15418 26.8081C8.65123 26.7583 8.19708 26.4857 7.91673 26.0651L6.22969 23.5346C5.71287 22.7594 5.92235 21.7119 6.69759 21.195C7.47284 20.6782 8.52026 20.8878 9.03709 21.663L9.58259 22.4813L13.1886 18.8753C13.8474 18.2165 14.9156 18.2165 15.5744 18.8753Z" fill="#84808F"/>
</g>
<defs>
<clipPath id="clip0_9648_356570">
<rect width="38" height="48" fill="white"/>
</clipPath>
</defs>
</svg>
